# xmcd CD database file
#
# Track frame offsets:
#	150
#	13110
#	24127
#	35517
#	47612
#	62980
#	75392
#	87547
#	102375
#	115720
#	128465
#	142267
#	155780
#	167727
#
# Disc length: 2414 seconds
#
# Revision: 0
# Processed by: cddbd v1.4PL0 Copyright (c) Steve Scherf et al.
# Submitted via: CDex 1.50beta9
#
DISCID=b3096c0e
DTITLE=Sarah Vaughan - Natural Boy [CD1)
DYEAR=1900
DGENRE=Jazz
TTITLE0=East Of The Sun (And West Of The Moon)
TTITLE1=No Smokes Blues
TTITLE2=Interlude
TTITLE3=Signing Off
TTITLE4=Lover Man
TTITLE5=I'd Rather Have A Memory Than A Dream
TTITLE6=Mean To Me
TTITLE7=Time And Again
TTITLE8=A Hundred Years From Today
TTITLE9=If You Could See Me Now
TTITLE10=I Can Make You Love Me If You'll Let Me
TTITLE11=You're Not The Kind
TTITLE12=My Kinda Love (One Way To Paradise)
TTITLE13=You're Blase
EXTD=
EXTT0=
EXTT1=
EXTT2=
EXTT3=
EXTT4=
EXTT5=
EXTT6=
EXTT7=
EXTT8=
EXTT9=
EXTT10=
EXTT11=
EXTT12=
EXTT13=
PLAYORDER=
